<?xml version="1.0" encoding="UTF-8"?>
<svg id="Layer_2" data-name="Layer 2" xmlns="http://www.w3.org/2000/svg" viewBox="0 0 205.61 112.07">
  <defs>
    <style>
      .cls-1 {
        fill: #ee353c;
      }
    </style>
  </defs>
  <g id="Layer_1-2" data-name="Layer 1">
    <path class="cls-1" d="M205.61,29.92V3.87c0-2.14-1.73-3.87-3.87-3.87h-112.82c-1.04,0-2.03.41-2.76,1.15-5.65,5.75-30.55,31.08-30.93,31.08H3.87c-2.14,0-3.87,1.73-3.87,3.87v37.13c0,2.14,1.73,3.87,3.87,3.87h151.13c3.44,0,5.17,4.15,2.75,6.59l-12.11,12.23c-.73.73-1.72,1.15-2.75,1.15H54.49c-2.14,0-3.87-1.73-3.87-3.87v-8.92c0-2.14-1.73-3.87-3.87-3.87H3.93c-2.13,0-3.86,1.73-3.87,3.86l-.03,12.8h-.03v11.13c0,2.14,1.73,3.87,3.87,3.87h197.87c2.14,0,3.87-1.73,3.87-3.87v-42.23c0-2.14-1.73-3.87-3.87-3.87H37.57c-3.45,0-5.17-4.17-2.73-6.6l20.57-20.57c.73-.73,1.71-1.13,2.73-1.13h143.6c2.14,0,3.87-1.73,3.87-3.87Z"/>
  </g>
</svg>