<svg width="665" height="445" viewBox="0 0 665 445" fill="none" xmlns="http://www.w3.org/2000/svg">
<circle cx="200" cy="200" r="200" fill="#FFB07F"/>
<mask id="mask0_6_1176" style="mask-type:alpha" maskUnits="userSpaceOnUse" x="75" y="75" width="250" height="250">
<circle cx="199.59" cy="199.59" r="124.59" fill="#D9D9D9"/>
</mask>
<g mask="url(#mask0_6_1176)">
<path d="M267.892 302.451C267.32 302.86 266.667 303.268 266.095 303.677C265.441 304.085 264.869 304.493 264.216 304.82C263.644 305.147 263.154 305.474 262.582 305.801C262.5 305.882 262.418 305.882 262.337 305.964C260.458 307.108 258.497 308.17 256.536 309.15C255.964 309.477 255.311 309.804 254.739 310.049C254.739 310.049 254.657 310.131 254.575 310.131C253.922 310.458 253.268 310.784 252.615 311.111C251.307 311.765 249.918 312.337 248.611 312.909C247.958 313.235 247.222 313.48 246.569 313.726C245.915 313.971 245.18 314.297 244.526 314.543C243.873 314.788 243.137 315.114 242.484 315.36C242.484 315.36 242.484 315.36 242.402 315.36C241.749 315.605 241.013 315.85 240.36 316.095C238.889 316.585 237.337 317.075 235.866 317.565C235.376 317.729 234.804 317.892 234.314 318.056C232.762 318.546 231.209 318.954 229.657 319.281C229.085 319.444 228.513 319.526 227.86 319.69C226.389 320.016 224.837 320.343 223.366 320.67C223.039 320.752 222.794 320.752 222.467 320.833C221.977 320.915 221.405 320.997 220.915 321.078C220.18 321.16 219.526 321.324 218.791 321.405C218.464 321.487 218.137 321.487 217.811 321.569C217.402 321.65 216.912 321.732 216.422 321.732C215.115 321.895 213.726 322.059 212.418 322.222C212.01 322.304 211.52 322.304 211.111 322.386H211.03C210.458 322.467 209.886 322.467 209.314 322.549C208.742 322.631 208.17 322.631 207.598 322.631C207.271 322.631 206.863 322.712 206.536 322.712C205.883 322.712 205.311 322.794 204.739 322.794C203.922 322.794 203.186 322.876 202.369 322.876C201.552 322.876 200.817 322.876 200 322.876C199.428 322.876 198.856 322.876 198.284 322.876C163.807 322.386 132.843 307.761 110.703 284.559C110.703 284.559 110.703 284.477 110.621 284.477C108.17 282.271 110.294 270.507 120.18 263.072C132.598 253.677 162.337 247.794 162.337 247.794C162.337 247.794 173.856 245.915 216.585 254.82C241.585 260.049 260.621 267.647 271.242 288.235C273.448 292.484 275.654 299.02 267.892 302.451Z" fill="white"/>
<path d="M216.83 253.922C232.517 257.108 249.265 260.539 262.173 270.915C266.503 274.428 269.363 279.575 271.732 284.559C272.876 287.01 274.02 289.543 274.918 292.239C275.409 294.036 276.144 296.078 275.735 298.203C275.654 298.775 275.164 299.51 274.755 299.918C272.876 301.797 270.834 302.941 268.791 304.412C256.781 312.745 242.974 318.627 228.677 321.732C196.814 328.677 162.337 323.284 134.314 306.536C125 300.899 116.422 294.036 109.069 285.948C108.252 284.967 108.252 283.333 108.252 282.271C108.333 279.82 108.987 277.451 109.804 275.245C111.765 270.18 114.298 265.114 118.628 261.601C121.732 259.477 125.082 257.68 128.513 256.209C139.298 251.634 150.654 248.448 162.337 247.141C163.317 247.059 163.481 248.448 162.5 248.611C151.307 250.899 140.196 254.33 129.82 258.987C126.062 260.866 122.059 262.5 119.036 265.441C116.177 268.546 114.134 272.386 112.5 276.307C111.438 278.676 110.703 282.435 111.03 284.314C116.177 290.441 122.222 295.833 128.758 300.49C164.543 325.49 218.873 327.124 256.945 306.291C260.376 304.412 263.726 302.288 266.912 300.082C268.464 299.02 270.098 298.121 271.324 296.895C271.405 296.814 271.324 296.895 271.324 296.977C271.324 297.059 271.242 297.141 271.242 297.141C271.324 296.16 270.997 294.853 270.588 293.546C269.118 288.807 266.749 283.824 264.216 279.493C260.213 273.039 253.432 268.954 246.569 265.686C241.83 263.48 236.847 261.765 231.781 260.131C226.716 258.497 221.569 257.108 216.422 255.882C215.115 255.556 215.523 253.676 216.83 253.922Z" fill="#1C1C1C"/>
<path d="M279.085 314.052C277.532 301.961 270.67 281.618 266.503 276.144C261.928 270.18 260.049 268.301 244.771 263.153C243.954 259.068 240.931 248.774 237.336 244.444C231.862 236.193 216.911 234.314 212.418 235.294C212.418 235.294 188.235 226.797 160.375 226.797C151.552 228.758 141.34 232.761 135.784 241.176C132.026 246.732 136.274 248.529 134.395 253.595C133.905 254.902 122.467 261.438 117.81 265.359C115.686 267.075 113.317 271.405 111.683 277.042C108.415 288.562 111.928 304.493 107.843 318.382C99.9997 345.18 84.0683 353.186 84.0683 353.186H295.179C295.016 353.104 282.434 339.542 279.085 314.052Z" fill="white"/>
<path d="M277.859 314.216C276.225 303.513 272.957 292.892 268.791 282.925C266.748 278.105 263.644 273.448 259.314 270.588C257.108 269.199 254.657 268.137 252.124 267.075C249.591 266.095 246.977 265.196 244.444 264.297C244.036 264.134 243.709 263.807 243.627 263.399C243.301 261.765 242.892 260.212 242.402 258.579C240.278 251.961 237.99 244.608 231.781 240.768C227.042 237.909 221.405 236.52 215.931 236.275C214.869 236.275 213.725 236.275 212.745 236.438H212.418C212.337 236.438 212.173 236.438 212.091 236.356C208.17 234.477 203.84 233.333 199.591 232.19C186.846 229.248 173.529 228.023 160.458 227.941C152.451 229.82 141.258 234.232 136.356 242.402C135.539 243.709 135.131 245.016 135.294 246.487C135.458 248.121 136.029 249.918 135.621 251.634C135.458 252.369 135.294 253.186 134.967 253.84C134.314 254.739 133.252 255.311 132.435 255.882C128.186 258.66 123.856 261.111 119.771 263.971C118.382 264.951 117.075 265.85 116.095 267.239C113.235 271.324 111.52 276.226 110.784 281.128C109.477 291.095 110.784 301.226 109.477 311.193C108.007 321.16 104.167 330.801 98.7745 339.297C95.0163 345.016 90.4412 350.327 84.6405 354.003L84.0686 351.716H295.18L294.281 353.758C291.83 350.98 289.869 347.958 288.072 344.771C282.516 335.458 279.248 324.918 277.859 314.216ZM280.31 313.889C281.209 320.833 282.925 327.696 285.539 334.232C288.154 340.686 291.422 346.977 295.997 352.288C296.65 353.023 296.078 354.412 295.098 354.33H83.9869C83.3333 354.33 82.7614 353.758 82.7614 353.105C82.7614 352.614 83.0065 352.206 83.415 352.043C84.7222 351.307 86.0294 350.245 87.2549 349.183C97.9575 339.543 104.657 325.245 106.863 311.029C108.742 297.712 105.229 283.333 111.193 270.67C112.582 267.729 114.297 264.624 117.075 262.745C122.141 258.987 127.696 256.209 132.68 252.533C132.761 252.533 132.761 252.451 132.761 252.451C132.68 252.533 132.598 252.696 132.598 252.778C133.088 251.634 133.252 250.654 133.088 249.346C132.843 247.712 132.435 245.507 133.007 243.791C133.252 242.811 133.742 241.912 134.232 241.177C140.114 232.353 150.49 228.431 160.376 226.226C163.154 226.307 166.013 225.817 168.791 225.817C172.631 225.817 176.552 226.389 180.392 226.879C191.422 228.595 202.042 231.536 212.908 233.905L212.173 233.824C214.706 233.333 217.075 233.579 219.526 233.905C235.212 236.275 240.523 243.137 244.771 257.762C245.261 259.396 245.67 261.029 246.078 262.745L245.261 261.765C253.105 264.543 261.928 267.075 266.912 274.346C268.709 276.552 270.016 279.167 271.16 281.781C275.327 292.239 278.595 302.778 280.31 313.889Z" fill="#1C1C1C"/>
<path d="M150.327 260.294C156.373 273.203 165.768 284.151 176.961 292.811C177.369 293.138 176.961 293.791 176.471 293.546C166.503 288.807 158.088 280.719 153.105 270.915C151.471 267.647 150.082 264.134 149.592 260.458C149.428 260.049 150.082 259.886 150.327 260.294Z" fill="#1C1C1C"/>
<path d="M245.997 262.99C246.242 276.634 240.687 290.605 230.066 299.428C229.82 299.673 229.494 299.592 229.249 299.347C229.003 299.101 229.085 298.775 229.33 298.53C231.7 296.242 234.069 293.873 235.866 291.095C239.624 285.703 241.912 279.33 242.974 272.876C243.464 269.69 243.791 266.258 243.546 263.072C243.464 261.52 245.915 261.356 245.997 262.99Z" fill="#1C1C1C"/>
<path d="M197.876 295.425C195.997 302.043 194.444 309.232 195.343 316.095C195.588 317.647 193.219 318.056 192.892 316.422C192.484 312.663 192.974 308.987 193.627 305.392C194.363 301.797 195.261 298.366 196.487 294.935C196.814 294.118 198.203 294.526 197.876 295.425Z" fill="#1C1C1C"/>
<path d="M223.856 294.199C226.552 300 228.431 306.046 229.902 312.173C230.065 312.827 229.657 313.48 229.003 313.644C228.35 313.807 227.696 313.399 227.533 312.745C226.716 308.17 225.654 303.595 224.183 299.101C223.693 297.631 223.203 296.16 222.631 294.69C222.304 293.954 223.448 293.382 223.856 294.199Z" fill="#1C1C1C"/>
<path d="M136.111 253.268C139.134 269.771 150.735 283.742 164.706 292.647C169.444 295.67 174.51 298.284 179.739 300.409C180.065 300.572 180.229 300.899 180.065 301.226C179.984 301.552 179.575 301.716 179.33 301.552C173.938 299.592 168.709 297.141 163.807 294.199C153.84 288.317 145.098 280.147 139.216 270.18C136.193 265.033 133.824 259.641 132.68 253.758C132.516 252.778 133.17 251.879 134.15 251.716C135.049 251.471 136.029 252.206 136.111 253.268Z" fill="#1C1C1C"/>
<path d="M192.973 317.892C190.686 317.647 189.052 315.523 189.542 313.235L190.441 308.905C190.768 307.19 192.402 305.964 194.117 306.209C195.833 306.373 197.222 307.843 197.222 309.641V314.052C197.304 316.34 195.343 318.137 192.973 317.892Z" fill="#1C1C1C"/>
<path d="M230.637 314.869C228.431 315.686 226.062 314.379 225.49 312.092L224.428 307.761C224.02 306.046 224.918 304.33 226.634 303.677C228.268 303.105 230.147 303.84 230.882 305.392L232.843 309.395C233.824 311.601 232.843 314.134 230.637 314.869Z" fill="#1C1C1C"/>
<path d="M268.382 312.418C268.382 312.418 272.958 338.072 271.16 353.105" stroke="#1C1C1C" stroke-width="5.1257" stroke-miterlimit="10" stroke-linecap="round" stroke-linejoin="round"/>
<path d="M161.683 250.327C160.539 247.059 160.049 243.709 160.294 240.278C160.294 239.951 160.539 239.788 160.866 239.788C161.111 239.788 161.356 240.033 161.356 240.278C161.601 243.382 162.5 246.569 163.97 249.265C164.706 250.899 162.255 251.961 161.683 250.327Z" fill="#1C1C1C"/>
<path d="M216.911 254.657C214.624 249.51 208.987 246.896 204.003 245.098C200.898 244.118 197.467 243.383 194.199 242.892C186.274 241.667 175.081 239.788 167.157 238.971C167.075 238.971 167.075 238.807 167.157 238.807C169.444 238.562 171.732 238.562 174.019 238.562C180.882 238.726 187.745 239.461 194.526 240.523C201.307 241.585 208.578 243.628 213.725 248.53C215.359 250.245 216.83 252.206 217.238 254.575C217.32 254.82 216.993 254.902 216.911 254.657Z" fill="#1C1C1C"/>
<path d="M224.509 275.654C222.794 284.069 211.682 289.134 192.973 281.536C173.529 273.693 165.114 254.984 162.99 249.428C174.509 227.859 166.503 212.909 166.503 212.909C193.055 210.621 216.258 241.667 216.258 241.667L219.852 257.026C220.179 258.333 220.833 259.477 221.813 260.294C223.529 263.317 225.571 270.261 224.509 275.654Z" fill="white"/>
<path d="M162.582 249.673C164.134 247.304 165.114 244.526 165.768 241.83C166.993 236.193 167.402 230.474 167.483 224.755V222.631C167.238 220.507 166.503 218.301 165.686 216.34C164.624 213.725 168.464 212.091 169.689 214.706C169.853 215.033 169.853 215.605 169.853 215.931C170.098 227.042 170.588 241.34 163.562 250.572C163.072 251.062 162.091 250.327 162.582 249.673Z" fill="#1C1C1C"/>
<path d="M217.156 241.503C218.382 242.239 218.79 243.219 218.954 244.199C219.444 246.16 219.281 248.284 219.771 250.327C220.179 252.288 221.405 254.167 221.732 256.209C222.14 258.333 223.366 262.827 223.856 265.033C224.019 265.523 223.692 266.095 223.12 266.177C222.794 266.258 222.549 266.177 222.303 266.013C221.241 265.114 220.751 264.216 220.098 263.072C219.036 261.111 218.3 259.314 217.647 257.108C217.075 255.147 217.32 253.023 216.83 250.981C216.421 249.02 215.277 247.141 214.869 245.098C214.624 244.118 214.542 243.056 215.277 241.83C215.768 241.34 216.585 241.177 217.156 241.503Z" fill="#1C1C1C"/>
<path d="M223.039 263.072C207.434 262.255 194.689 257.353 182.271 235.212C192.729 244.444 205.065 247.958 218.055 249.592L219.771 257.108C220.098 258.415 222.059 262.255 223.039 263.072Z" fill="#1C1C1C"/>
<path d="M222.386 260.049C225.164 265.278 226.798 271.814 225.082 277.614C223.775 281.699 220.016 284.722 215.932 285.866C206.454 288.399 195.507 284.395 187.092 279.902C176.716 274.101 169.036 264.379 164.134 253.758C163.807 252.941 164.951 252.288 165.441 253.105C167.157 256.536 169.118 259.886 171.324 262.909C173.53 266.013 176.062 268.873 178.922 271.405C187.255 278.922 198.53 283.578 209.804 283.578C221.405 283.252 225.817 277.124 223.121 265.85C222.713 264.052 222.059 262.173 221.16 260.621C220.67 259.967 221.896 259.232 222.386 260.049Z" fill="#1C1C1C"/>
<path d="M254.003 161.928C255.474 168.791 256.209 174.346 252.206 192.647C248.284 210.866 257.843 214.624 235.212 243.791C225.98 255.719 203.595 252.369 185.457 240.033C179.33 235.866 176.716 225.163 172.14 217.565C168.546 211.601 166.912 217.81 162.173 212.663C155.719 205.637 147.957 191.503 151.797 166.503C158.006 125.98 190.114 121.242 213.889 125.735C237.827 130.31 250.082 143.873 254.003 161.928Z" fill="white"/>
<path d="M166.258 219.935C164.379 216.748 161.928 213.971 159.64 211.029C157.434 208.007 155.637 204.657 154.167 201.226C144.444 177.369 148.202 143.791 172.059 129.739C181.944 124.02 193.872 122.631 204.983 123.529C228.758 125.245 250.572 136.193 255.719 161.356C258.497 172.467 254.738 183.905 252.614 194.771C251.634 200.163 252.451 205.719 252.369 211.275C252.287 216.912 250.735 222.549 248.611 227.778C247.304 231.373 245.016 234.559 242.647 237.5C238.725 242.239 234.804 247.059 229.82 250.735C228.676 251.552 226.634 251.961 225.245 252.124C221.405 252.696 217.647 252.859 213.807 252.614C198.774 251.961 182.68 244.69 176.634 230.147C176.389 229.575 177.206 229.167 177.533 229.657C185.376 242.075 199.755 248.203 214.052 249.02C218.464 249.265 222.957 249.183 227.287 248.284C229.412 247.222 231.291 245.343 233.088 243.627C237.5 239.216 241.993 234.477 245.18 229.085C249.019 221.814 251.144 213.889 250.49 205.637C250.327 201.961 250.245 198.121 250.98 194.444C251.634 190.768 252.451 187.255 252.941 183.497C253.431 179.902 253.676 176.226 253.676 172.631C253.268 162.092 249.836 151.226 243.137 143.056C228.35 124.673 193.382 119.853 173.693 132.435C161.274 140.114 155.474 154.493 153.595 168.464C150.735 185.212 151.552 201.716 164.869 213.889L168.791 217.974C170.343 219.771 167.565 221.895 166.258 219.935Z" fill="#1C1C1C"/>
<path d="M175.898 193.954C175.898 193.954 173.366 181.699 161.437 183.17C151.143 184.477 147.549 209.15 170.915 216.013" fill="white"/>
<path d="M169.853 205.31C167.974 204.248 166.667 202.451 166.585 200.245C166.667 198.611 166.912 196.732 166.503 195.098C166.258 193.546 164.624 193.137 163.399 193.219C162.091 193.464 161.274 195.098 161.029 196.405C161.029 196.487 160.948 196.732 160.948 196.814C160.866 197.222 160.212 197.222 160.049 196.814C158.987 193.627 161.356 190.114 164.787 190.523C169.608 190.85 170.261 195.915 169.363 199.755C168.872 201.389 169.526 202.859 170.425 204.248L170.588 204.493C170.997 204.984 170.343 205.637 169.853 205.31Z" fill="#1C1C1C"/>
<path d="M235.212 185.294C236.438 191.095 238.725 196.487 241.585 201.552C244.117 207.761 237.581 213.644 231.781 213.399C231.127 213.399 231.045 212.5 231.617 212.337C235.294 211.193 238.643 208.742 239.215 204.984C239.46 203.84 239.134 202.859 238.562 201.879C235.866 196.814 234.232 191.013 234.64 185.294C234.64 184.886 235.212 184.886 235.212 185.294Z" fill="#1C1C1C"/>
<path d="M175.49 194.036C173.611 189.216 169.526 184.641 164.052 184.722C163.562 184.641 162.745 184.804 162.255 184.804C160.866 184.886 159.722 185.376 158.66 186.356C153.431 191.585 154.33 200.817 158.578 206.618C160.049 208.66 161.928 210.458 164.052 211.928C166.176 213.399 168.546 214.543 171.078 215.523C171.65 215.686 171.405 216.585 170.833 216.503C165.359 215.36 160.131 212.663 156.536 208.17C150.98 201.471 149.836 190.278 156.454 183.742C157.925 182.435 159.967 181.454 162.01 181.454C162.663 181.454 163.644 181.291 164.297 181.454C167.729 181.618 170.997 183.333 173.121 186.029C175 188.317 176.062 191.095 176.389 193.873C176.389 194.363 175.653 194.526 175.49 194.036Z" fill="#1C1C1C"/>
<path d="M229.003 221.569C223.775 226.552 213.889 222.549 211.275 216.503C210.948 215.768 211.765 215.114 212.418 215.441C213.807 216.176 215.033 216.912 216.34 217.484C220.098 219.199 224.02 220.588 228.186 220.18C229.003 220.016 229.575 220.997 229.003 221.569Z" fill="#1C1C1C"/>
<path d="M204.739 193.627C202.778 193.546 201.307 191.912 201.471 189.951L201.552 187.663C201.634 185.703 203.268 184.232 205.229 184.395C207.19 184.477 208.66 186.111 208.497 188.072L208.415 190.36C208.334 192.239 206.7 193.709 204.739 193.627Z" fill="#1C1C1C"/>
<path d="M239.134 194.853C237.337 194.771 235.948 193.219 236.029 191.422L236.111 189.298C236.193 187.5 237.745 186.111 239.542 186.193C241.34 186.275 242.729 187.827 242.647 189.624L242.565 191.748C242.484 193.546 240.931 194.935 239.134 194.853Z" fill="#1C1C1C"/>
<path d="M212.092 189.216C209.396 187.418 206.454 186.193 203.186 186.846C202.124 187.01 201.062 187.337 200.409 188.072C200.164 188.399 199.592 188.317 199.592 187.827C199.673 186.193 201.062 185.131 202.369 184.477C204.902 183.17 208.415 183.415 210.703 185.131C211.52 185.621 214.298 188.644 212.827 189.297C212.5 189.461 212.337 189.379 212.092 189.216Z" fill="#1C1C1C"/>
<path d="M235.458 189.624C235.458 186.193 239.706 184.967 242.32 186.193C243.791 186.846 244.853 188.154 245.262 189.706C245.425 190.196 244.69 190.605 244.363 190.196C242.974 188.562 240.605 187.745 238.726 188.726C238.154 189.052 238.072 189.297 237.909 189.624C237.909 191.258 235.539 191.177 235.458 189.624Z" fill="#1C1C1C"/>
<path d="M216.013 175.735C217.729 176.307 219.445 174.755 219.118 172.876C218.954 171.895 218.546 170.915 217.729 170.18C215.278 167.974 205.147 166.013 199.02 168.873C193.628 171.487 208.17 173.121 216.013 175.735Z" fill="#1C1C1C"/>
<path d="M240.442 177.043C239.053 177.533 237.582 176.062 237.827 174.346C237.909 173.448 238.236 172.549 238.889 171.895C240.85 169.935 247.549 168.382 251.798 171.405C255.474 173.938 246.814 174.673 240.442 177.043Z" fill="#1C1C1C"/>
<path d="M254.657 164.951C254.494 163.971 254.249 162.99 254.085 161.928C253.186 157.925 251.879 154.167 250.164 150.654L240.523 154.657C237.745 155.801 234.641 156.128 231.618 155.637L193.382 149.02C188.726 148.203 184.232 150.899 182.68 155.311C181.536 158.497 179.739 162.99 178.268 166.177C166.667 168.056 162.827 165.278 153.513 160.948C152.778 160.621 151.716 159.559 150.899 159.15C152.369 151.716 146.732 120.67 153.758 112.582C156.128 109.886 158.497 109.559 160.784 110.376C166.095 112.255 163.889 111.193 167.729 107.108C170.833 103.922 174.755 101.144 179.575 101.062C181.945 100.98 183.824 101.471 185.376 102.369C190.278 105.065 196.242 104.167 200.654 100.817C202.043 99.8367 203.513 99.1831 205.147 99.1831C207.516 99.1831 209.641 100.163 211.356 101.471C214.624 103.922 218.954 104.494 222.958 103.677C223.203 103.595 223.448 103.595 223.693 103.595C224.673 103.595 225.735 103.84 226.634 104.248C230.066 105.719 233.905 105.882 237.337 104.412C238.971 103.758 240.932 103.758 242.892 105.637C245.343 108.007 248.53 109.559 251.961 109.641C252.86 109.641 254.003 110.049 255.392 110.948C256.046 111.438 256.618 112.337 257.026 113.562C257.68 115.441 259.232 116.83 261.193 117.402C262.418 117.811 263.317 119.036 263.562 121.814C264.298 130.556 256.699 157.843 254.657 164.951Z" fill="#1C1C1C"/>
<path d="M261.03 117.239C257.435 118.546 256.782 117.81 252.697 116.748C248.612 115.686 245.017 120.261 242.076 115.523C237.827 108.578 229.984 113.317 228.432 112.01C226.88 110.703 222.059 106.373 215.278 110.948C210.785 113.971 205.066 108.578 197.876 108.578C183.497 108.578 180.883 119.118 175.899 114.297C170.916 109.559 173.775 112.745 166.422 114.052C159.069 115.359 155.311 110.948 155.311 110.948C157.108 109.722 158.906 109.722 160.622 110.294C165.932 112.173 163.726 111.111 167.566 107.026C170.671 103.84 174.592 101.062 179.412 100.98C181.782 100.899 183.661 101.389 185.213 102.288C190.115 104.984 196.079 104.085 200.491 100.735C201.88 99.7549 203.35 99.1013 204.984 99.1013C207.354 99.1013 209.478 100.082 211.193 101.389C214.461 103.84 218.791 104.412 222.795 103.595C223.04 103.513 223.285 103.513 223.53 103.513C224.51 103.513 225.573 103.758 226.471 104.167C229.903 105.637 233.742 105.801 237.174 104.33C238.808 103.676 240.769 103.676 242.729 105.556C245.18 107.925 248.367 109.477 251.798 109.559C252.697 109.559 253.841 109.967 255.229 110.866C255.883 111.356 256.455 112.255 256.863 113.48C257.517 115.278 259.069 116.667 261.03 117.239Z" fill="#1C1C1C"/>
<path d="M175.245 189.624C175.245 190.114 174.592 190.36 174.347 189.869C172.468 186.438 168.71 182.271 161.52 183.17C152.86 184.232 148.938 201.797 161.683 211.438C164.706 213.644 167.893 214.869 168.873 215.278C169.118 215.36 169.2 215.605 169.2 215.768L168.383 221.487C168.301 221.814 167.974 222.141 167.729 221.895C164.87 218.627 163.726 216.83 156.863 209.722C151.879 204.575 146.242 197.304 145.507 185.212C144.935 174.592 147.468 166.258 150.654 159.477C150.736 159.232 151.062 159.15 151.308 159.232C162.092 164.216 166.095 167.075 177.696 165.36C178.105 165.278 178.35 165.686 178.187 166.013C176.879 168.546 175.572 170.588 174.183 171.569C170.18 174.673 174.837 182.19 175.245 189.624Z" fill="#EDEDED"/>
<path d="M175.817 189.542C175.899 190.85 174.183 191.095 173.693 189.951C172.059 187.01 169.363 184.641 166.095 183.987C162.337 183.252 158.579 184.069 156.536 187.663C152.778 194.199 154.821 203.105 160.131 208.252C162.745 210.621 165.278 213.889 168.955 214.869C169.363 214.951 169.608 215.441 169.527 215.768V215.85V216.013V216.422V217.157C169.527 218.382 169.527 220.098 169.445 221.324C169.445 222.631 167.729 223.611 166.83 222.467C165.85 221.487 164.379 219.526 163.481 218.382C158.497 212.173 152.043 206.781 148.693 199.346C143.628 188.235 144.69 175.163 148.775 163.971C149.428 162.337 150 160.621 150.899 159.15C151.144 158.987 151.389 159.069 151.634 159.232C156.945 161.601 162.582 164.869 168.464 165.605C171.487 165.931 174.51 165.768 177.451 165.359C177.696 165.359 177.942 165.196 178.187 165.359C178.922 165.768 177.942 166.912 177.778 167.484C177.043 169.118 176.144 170.833 174.837 172.059C172.223 174.592 175.491 179.902 175.817 183.17C175.981 185.376 175.654 187.5 175.817 189.542ZM174.592 189.624C174.51 187.663 173.285 185.866 172.468 184.069C171.242 180.556 169.935 176.552 171.324 172.794C171.814 171.65 172.795 170.752 173.775 170.098C175.082 168.873 176.226 167.239 177.043 165.605C176.798 165.931 177.125 166.83 177.778 166.748C166.749 168.627 160.785 165.196 150.981 160.539L150.817 160.458C151.144 160.621 151.553 160.458 151.716 160.131V160.049C151.471 160.621 151.144 161.193 150.899 161.846C145.915 173.284 144.608 187.255 150.245 198.693C153.759 205.882 160.213 210.866 165.115 217.075C165.932 218.056 167.647 220.098 168.464 221.16C168.219 220.833 167.402 220.752 167.239 221.16L167.157 221.324C167.239 220.915 167.321 220.425 167.484 220.016C167.811 218.709 168.301 217.075 168.628 215.686C168.628 215.605 168.628 215.605 168.628 215.605C167.893 215.278 167.076 214.951 166.34 214.624C164.461 213.807 162.337 213.399 160.54 212.255C154.494 208.088 151.144 200 152.615 192.647C153.513 187.418 157.353 181.863 163.236 182.353C168.056 182.271 172.549 185.131 174.755 189.379L174.837 189.542C174.755 189.461 174.674 189.461 174.592 189.624Z" fill="#1C1C1C"/>
<path d="M175.327 170.588C174.919 170.997 174.592 171.405 174.183 171.65C173.203 172.386 172.713 173.448 172.549 174.673C167.484 174.918 160.213 172.794 157.68 171.977C157.108 171.814 156.781 171.324 156.781 170.752V170.343C156.781 169.444 157.598 168.873 158.415 169.036C164.134 170.588 175 170.588 175.327 170.588Z" fill="#1C1C1C"/>
<path d="M173.693 181.536C169.2 181.209 164.87 180.392 162.909 179.984C162.256 179.82 161.847 179.33 161.847 178.677C161.847 177.86 162.582 177.288 163.399 177.369C167.076 177.941 170.997 177.86 172.876 177.778C172.958 178.922 173.285 180.147 173.693 181.536Z" fill="#1C1C1C"/>
<path d="M240.931 234.972C242.157 228.517 242.565 221.981 241.503 215.527C241.095 213.076 239.624 208.991 237.337 210.789C236.438 211.524 231.781 212.994 230.882 213.076C228.268 213.321 226.307 212.994 224.428 211.524C222.304 209.808 222.304 209.073 221.814 208.91C213.235 206.05 202.451 203.191 198.938 214.71C196.078 224.106 188.889 233.338 183.578 224.187C179.493 217.243 179.739 204.008 179.167 201.23C177.778 194.367 175.817 191.017 174.673 191.998C174.673 194.204 175.408 220.266 175.49 221.655C176.062 228.844 176.961 231.132 180.229 235.789C183.497 240.445 194.935 253.109 209.804 254.171C224.755 255.233 233.007 254.008 241.34 244.449C248.856 235.789 249.101 217.815 249.101 217.815C245.425 228.681 242.892 232.276 240.931 234.972ZM207.271 216.589C211.52 211.932 217.729 217.325 224.428 217.815C231.046 218.305 233.742 214.138 234.232 221.491C234.395 223.289 234.641 226.311 234.559 228.354C234.559 228.436 234.559 228.517 234.559 228.599C234.314 230.887 233.578 233.419 231.291 234.808C226.471 237.831 218.709 237.096 213.725 236.115C206.781 234.727 205.31 231.54 204.984 230.07C204.493 223.779 205.556 218.468 207.271 216.589Z" fill="#1C1C1C"/>
<path d="M217.729 203.676C217.729 203.676 210.049 208.497 201.389 208.415C192.729 208.333 191.667 201.552 191.585 197.876C191.585 197.876 192.729 203.186 197.958 205.147C203.105 207.108 217.729 203.676 217.729 203.676Z" fill="#1C1C1C"/>
<path d="M242.401 202.778C242.401 202.778 244.281 205.065 246.813 206.699C248.529 207.843 250.817 206.618 250.817 204.575C250.817 204.575 246.078 204.82 242.401 202.778Z" fill="#1C1C1C"/>
<path d="M220.588 181.863C216.176 181.454 205.065 180.556 200.817 180.147L197.549 179.902C194.853 179.739 192.728 182.026 192.238 184.641C192.075 185.458 192.075 186.846 192.075 187.663V191.013C192.075 193.056 191.993 195.18 192.728 197.141C194.036 201.716 198.202 205.392 203.104 204.82C203.594 204.739 206.617 204.412 207.189 204.33L213.807 203.595C215.931 203.431 217.892 202.86 219.771 201.716C222.385 200.163 224.918 197.794 224.755 194.444L224.918 191.177C225.081 187.092 226.225 182.271 220.588 181.863ZM220.833 179.167C224.673 179.494 227.287 183.497 227.042 187.173C227.042 187.663 226.879 190.768 226.797 191.34C226.797 191.993 226.634 194.935 226.552 195.507C226.143 201.062 219.934 204.984 214.869 205.719C212.255 206.046 206.781 206.781 204.166 207.108C203.513 207.19 202.614 207.271 201.96 207.353C201.634 207.353 200.898 207.271 200.571 207.271C193.627 206.373 189.215 199.265 189.379 192.647C189.379 191.585 189.379 188.807 189.379 187.663C189.379 187.092 189.379 185.621 189.46 185.049C189.705 182.19 191.258 179.412 193.872 177.86C195.016 177.206 196.405 176.879 197.794 176.961L201.143 177.288C205.228 177.778 216.503 178.84 220.833 179.167Z" fill="#1C1C1C"/>
<path d="M239.787 180.474C241.585 180.229 250.408 179.248 252.042 179.085C252.451 179.085 253.513 178.922 253.84 178.922C257.353 178.431 258.987 182.271 259.314 185.131C259.477 187.663 259.314 190.114 259.395 192.565C259.395 194.281 259.232 195.997 258.823 197.631C257.761 202.043 254.657 206.699 249.51 205.229C248.284 204.984 245.833 204.657 244.689 204.412L243.464 204.167C241.095 203.758 239.134 202.124 237.827 200.327C235.376 197.467 235.866 193.627 235.621 190.196C235.294 186.765 235.376 181.454 239.787 180.474ZM240.114 182.843C237.582 183.987 238.235 187.827 238.235 190.114L238.399 195.016C238.48 198.121 240.931 201.226 243.872 202.043C244.608 202.206 246.65 202.614 247.467 202.778L249.836 203.268C255.719 205.147 258.006 196.977 257.925 192.484C257.68 188.726 258.823 184.232 256.127 181.209C255.474 180.556 254.82 180.392 254.085 180.556C253.676 180.637 252.614 180.801 252.287 180.882C250.653 181.209 241.83 182.598 240.114 182.843Z" fill="#1C1C1C"/>
<path d="M190.686 188.072C190.032 189.542 189.461 189.379 188.317 189.379L185.948 189.297C182.925 189.134 179.575 188.889 176.552 188.48C174.918 188.235 173.202 187.99 171.568 187.582C170.915 187.418 170.506 186.765 170.67 186.111C170.833 185.539 171.323 185.131 171.895 185.212L176.634 185.458L181.372 185.621C182.925 185.703 186.928 185.784 188.48 185.866C189.297 185.866 190.032 185.948 190.849 185.703C191.176 185.621 191.503 185.784 191.585 186.111C191.666 186.275 191.585 186.356 191.585 186.52L190.686 188.072Z" fill="#1C1C1C"/>
<path d="M225.49 186.356C228.431 184.722 236.193 182.435 237.663 186.846C238.317 187.99 236.601 189.052 235.866 187.909C235.866 188.072 235.457 187.909 235.294 187.909C232.189 187.663 229.003 188.154 225.898 188.399C224.591 188.562 224.346 186.846 225.49 186.356Z" fill="#1C1C1C"/>
</g>
<path d="M295.974 291.752L299.238 272.744C306.278 274.472 312.646 275.336 318.342 275.336C321.222 275.336 323.75 275.304 325.926 275.24C328.166 275.112 330.15 274.92 331.878 274.664V268.904L321.51 268.04C316.838 267.592 312.934 266.824 309.798 265.736C306.662 264.648 304.134 263.176 302.214 261.32C300.358 259.4 299.014 257.128 298.182 254.504C297.414 251.816 297.03 248.68 297.03 245.096C297.03 240.168 297.542 236.072 298.566 232.808C299.59 229.48 301.222 226.824 303.462 224.84C305.702 222.792 308.582 221.352 312.102 220.52C315.686 219.688 320.038 219.272 325.158 219.272C335.334 219.272 344.55 220.232 352.806 222.152L349.926 240.584C342.758 239.432 337.03 238.856 332.742 238.856C328.454 238.856 324.806 239.048 321.798 239.432V245.096L330.054 245.864C335.11 246.376 339.334 247.24 342.726 248.456C346.118 249.608 348.838 251.144 350.886 253.064C352.998 254.984 354.47 257.256 355.302 259.88C356.198 262.504 356.646 265.512 356.646 268.904C356.646 273.768 356.006 277.864 354.726 281.192C353.446 284.52 351.91 287.048 350.118 288.776C348.646 290.184 346.822 291.304 344.646 292.136C342.47 292.904 340.166 293.48 337.734 293.864C335.302 294.248 332.838 294.472 330.342 294.536C327.91 294.664 325.702 294.728 323.718 294.728C318.726 294.728 313.926 294.472 309.318 293.96C304.71 293.448 300.262 292.712 295.974 291.752ZM388.363 257.48V293H365.323V218.12L388.363 216.392V237.512C393.291 234.952 398.731 233.672 404.683 233.672C410.699 233.672 415.243 234.856 418.315 237.224C421.387 239.528 422.923 242.76 422.923 246.92V293H399.883V252.68H396.331C393.515 252.68 391.467 252.968 390.187 253.544C388.971 254.12 388.363 255.432 388.363 257.48ZM456.894 293H433.854V238.28L456.894 235.4V293ZM432.606 224.552C432.606 222.824 432.798 221.384 433.182 220.232C433.566 219.016 434.238 218.056 435.198 217.352C436.158 216.584 437.47 216.04 439.134 215.72C440.798 215.4 442.91 215.24 445.47 215.24C448.03 215.24 450.11 215.4 451.71 215.72C453.374 216.04 454.686 216.584 455.646 217.352C456.606 218.056 457.278 219.016 457.662 220.232C458.046 221.384 458.238 222.824 458.238 224.552C458.238 226.28 458.046 227.72 457.662 228.872C457.278 230.024 456.606 230.984 455.646 231.752C454.686 232.456 453.374 232.968 451.71 233.288C450.11 233.544 448.03 233.672 445.47 233.672C443.614 233.672 441.886 233.608 440.286 233.48C438.75 233.352 437.406 233 436.254 232.424C435.102 231.784 434.206 230.856 433.566 229.64C432.926 228.424 432.606 226.728 432.606 224.552ZM491.488 257.48V293H468.448V218.12L491.488 216.392V237.512C496.416 234.952 501.856 233.672 507.808 233.672C513.824 233.672 518.368 234.856 521.44 237.224C524.512 239.528 526.048 242.76 526.048 246.92V293H503.008V252.68H499.456C496.64 252.68 494.592 252.968 493.312 253.544C492.096 254.12 491.488 255.432 491.488 257.48ZM564.243 233.672C582.675 233.672 591.891 240.008 591.891 252.68V293H580.371L573.843 286.472C572.691 287.752 571.315 288.904 569.715 289.928C568.179 290.952 566.515 291.816 564.723 292.52C562.931 293.224 561.107 293.768 559.251 294.152C557.395 294.536 555.603 294.728 553.875 294.728C550.611 294.728 547.667 294.376 545.043 293.672C542.483 293.032 540.307 291.976 538.515 290.504C536.723 289.032 535.347 287.08 534.387 284.648C533.427 282.216 532.947 279.24 532.947 275.72C532.947 261.896 543.379 254.984 564.243 254.984H568.851V250.856C567.635 250.792 566.515 250.728 565.491 250.664C564.531 250.6 563.635 250.568 562.803 250.568C554.163 250.568 546.707 251.624 540.435 253.736L537.651 237.224C545.331 234.856 554.195 233.672 564.243 233.672ZM556.179 273.224V277.928H560.979C564.307 277.928 566.483 277.544 567.507 276.776C568.403 275.944 568.851 274.952 568.851 273.8V268.328H564.147C561.395 268.328 559.379 268.616 558.099 269.192C556.819 269.768 556.179 271.112 556.179 273.224ZM602.229 290.12V218.12L625.269 216.392V235.496C628.085 234.28 631.925 233.672 636.789 233.672C641.397 233.672 645.269 234.504 648.405 236.168C651.541 237.832 654.069 240.072 655.989 242.888C657.973 245.64 659.381 248.872 660.213 252.584C661.109 256.296 661.557 260.168 661.557 264.2C661.557 275.016 659.061 282.824 654.069 287.624C649.077 292.36 641.525 294.728 631.413 294.728C621.301 294.728 611.573 293.192 602.229 290.12ZM625.269 254.792V277.928H628.821C631.637 277.928 633.653 277.64 634.869 277.064C636.149 276.488 636.789 275.144 636.789 273.032V250.472H633.237C631.573 250.472 630.229 250.536 629.205 250.664C628.181 250.792 627.285 251.208 626.517 251.912C625.749 252.552 625.333 253.512 625.269 254.792ZM163.345 389L175.825 413H150.481L141.073 391.592H136.081V413H113.041V341H149.329C165.841 341 174.097 349.416 174.097 366.248C174.097 377.768 170.513 385.352 163.345 389ZM141.361 359.432H136.081V373.832H141.361C144.177 373.832 146.193 373.544 147.409 372.968C148.689 372.392 149.329 371.08 149.329 369.032V364.232C149.329 362.184 148.689 360.872 147.409 360.296C146.193 359.72 144.177 359.432 141.361 359.432ZM211.18 353.672C229.612 353.672 238.828 360.008 238.828 372.68V413H227.308L220.78 406.472C219.628 407.752 218.252 408.904 216.652 409.928C215.116 410.952 213.452 411.816 211.66 412.52C209.868 413.224 208.044 413.768 206.188 414.152C204.332 414.536 202.54 414.728 200.812 414.728C197.548 414.728 194.604 414.376 191.98 413.672C189.42 413.032 187.244 411.976 185.452 410.504C183.66 409.032 182.284 407.08 181.324 404.648C180.364 402.216 179.884 399.24 179.884 395.72C179.884 381.896 190.316 374.984 211.18 374.984H215.788V370.856C214.572 370.792 213.452 370.728 212.428 370.664C211.468 370.6 210.572 370.568 209.74 370.568C201.1 370.568 193.644 371.624 187.372 373.736L184.588 357.224C192.268 354.856 201.132 353.672 211.18 353.672ZM203.116 393.224V397.928H207.916C211.244 397.928 213.42 397.544 214.444 396.776C215.34 395.944 215.788 394.952 215.788 393.8V388.328H211.084C208.332 388.328 206.316 388.616 205.036 389.192C203.756 389.768 203.116 391.112 203.116 393.224ZM272.206 377.48V413H249.166V338.12L272.206 336.392V357.512C277.134 354.952 282.574 353.672 288.526 353.672C294.542 353.672 299.086 354.856 302.158 357.224C305.23 359.528 306.766 362.76 306.766 366.92V413H283.726V372.68H280.174C277.358 372.68 275.31 372.968 274.03 373.544C272.814 374.12 272.206 375.432 272.206 377.48ZM349.954 413V372.68H348.322C347.298 372.68 346.306 372.712 345.346 372.776C344.45 372.84 343.65 373.064 342.946 373.448C342.242 373.768 341.698 374.28 341.314 374.984C340.93 375.688 340.738 376.68 340.738 377.96V413H317.698V355.4H329.218L334.402 360.68C339.074 356.008 345.218 353.672 352.834 353.672C360.386 353.672 365.89 355.24 369.346 358.376C374.146 355.24 379.586 353.672 385.666 353.672C391.874 353.672 396.674 354.856 400.066 357.224C403.522 359.528 405.25 362.76 405.25 366.92V413H382.21V372.68H380.578C379.682 372.68 378.786 372.712 377.89 372.776C376.994 372.84 376.194 373.032 375.49 373.352C374.85 373.608 374.274 374.056 373.762 374.696C373.314 375.336 373.058 376.2 372.994 377.288V413H349.954ZM443.399 353.672C461.831 353.672 471.047 360.008 471.047 372.68V413H459.527L452.999 406.472C451.847 407.752 450.471 408.904 448.871 409.928C447.335 410.952 445.671 411.816 443.879 412.52C442.087 413.224 440.263 413.768 438.407 414.152C436.551 414.536 434.759 414.728 433.031 414.728C429.767 414.728 426.823 414.376 424.199 413.672C421.639 413.032 419.463 411.976 417.671 410.504C415.879 409.032 414.503 407.08 413.543 404.648C412.583 402.216 412.103 399.24 412.103 395.72C412.103 381.896 422.535 374.984 443.399 374.984H448.007V370.856C446.791 370.792 445.671 370.728 444.647 370.664C443.687 370.6 442.791 370.568 441.959 370.568C433.319 370.568 425.863 371.624 419.591 373.736L416.807 357.224C424.487 354.856 433.351 353.672 443.399 353.672ZM435.335 393.224V397.928H440.135C443.463 397.928 445.639 397.544 446.663 396.776C447.559 395.944 448.007 394.952 448.007 393.8V388.328H443.303C440.551 388.328 438.535 388.616 437.255 389.192C435.975 389.768 435.335 391.112 435.335 393.224ZM481.385 355.4H492.905L498.665 361.16C505.769 356.168 513.449 353.672 521.705 353.672C527.145 353.672 531.369 354.856 534.377 357.224C537.449 359.528 538.985 362.76 538.985 366.92V413H515.945V372.68H512.393C509.769 372.68 507.785 372.968 506.441 373.544C505.097 374.056 504.425 375.24 504.425 377.096V413H481.385V355.4ZM575.818 411.752L579.082 392.744C586.122 394.472 592.49 395.336 598.186 395.336C601.066 395.336 603.594 395.304 605.77 395.24C608.01 395.112 609.994 394.92 611.722 394.664V388.904L601.354 388.04C596.682 387.592 592.778 386.824 589.642 385.736C586.506 384.648 583.978 383.176 582.058 381.32C580.202 379.4 578.858 377.128 578.026 374.504C577.258 371.816 576.874 368.68 576.874 365.096C576.874 360.168 577.386 356.072 578.41 352.808C579.434 349.48 581.066 346.824 583.306 344.84C585.546 342.792 588.426 341.352 591.946 340.52C595.53 339.688 599.882 339.272 605.002 339.272C615.178 339.272 624.394 340.232 632.65 342.152L629.77 360.584C622.602 359.432 616.874 358.856 612.586 358.856C608.298 358.856 604.65 359.048 601.642 359.432V365.096L609.898 365.864C614.954 366.376 619.178 367.24 622.57 368.456C625.962 369.608 628.682 371.144 630.73 373.064C632.842 374.984 634.314 377.256 635.146 379.88C636.042 382.504 636.49 385.512 636.49 388.904C636.49 393.768 635.85 397.864 634.57 401.192C633.29 404.52 631.754 407.048 629.962 408.776C628.49 410.184 626.666 411.304 624.49 412.136C622.314 412.904 620.01 413.48 617.578 413.864C615.146 414.248 612.682 414.472 610.186 414.536C607.754 414.664 605.546 414.728 603.562 414.728C598.57 414.728 593.77 414.472 589.162 413.96C584.554 413.448 580.106 412.712 575.818 411.752Z" fill="#1C1C1C"/>
<path d="M652.27 395.912C654.83 395.912 656.942 396.744 658.606 398.408C660.334 400.072 661.198 402.248 661.198 404.936C661.198 407.624 660.334 409.8 658.606 411.464C656.942 413.128 654.83 413.96 652.27 413.96C649.71 413.96 647.566 413.096 645.838 411.368C644.11 409.64 643.246 407.496 643.246 404.936C643.246 402.248 644.11 400.072 645.838 398.408C647.566 396.744 649.71 395.912 652.27 395.912Z" fill="#FFB07F"/>
</svg>
