<svg width="250" height="250" viewBox="0 0 250 250" fill="none" xmlns="http://www.w3.org/2000/svg">
<mask id="mask0_4_1079" style="mask-type:alpha" maskUnits="userSpaceOnUse" x="0" y="0" width="250" height="250">
<circle cx="124.59" cy="124.59" r="124.59" fill="#D9D9D9"/>
</mask>
<g mask="url(#mask0_4_1079)">
<path d="M192.892 227.451C192.32 227.86 191.667 228.268 191.095 228.677C190.441 229.085 189.869 229.493 189.216 229.82C188.644 230.147 188.154 230.474 187.582 230.801C187.5 230.882 187.418 230.882 187.337 230.964C185.458 232.108 183.497 233.17 181.536 234.15C180.964 234.477 180.311 234.804 179.739 235.049C179.739 235.049 179.657 235.131 179.575 235.131C178.922 235.458 178.268 235.784 177.615 236.111C176.307 236.765 174.918 237.337 173.611 237.909C172.958 238.235 172.222 238.48 171.569 238.726C170.915 238.971 170.18 239.297 169.526 239.543C168.873 239.788 168.137 240.114 167.484 240.36C167.484 240.36 167.484 240.36 167.402 240.36C166.749 240.605 166.013 240.85 165.36 241.095C163.889 241.585 162.337 242.075 160.866 242.565C160.376 242.729 159.804 242.892 159.314 243.056C157.762 243.546 156.209 243.954 154.657 244.281C154.085 244.444 153.513 244.526 152.86 244.69C151.389 245.016 149.837 245.343 148.366 245.67C148.039 245.752 147.794 245.752 147.467 245.833C146.977 245.915 146.405 245.997 145.915 246.078C145.18 246.16 144.526 246.324 143.791 246.405C143.464 246.487 143.137 246.487 142.811 246.569C142.402 246.65 141.912 246.732 141.422 246.732C140.115 246.895 138.726 247.059 137.418 247.222C137.01 247.304 136.52 247.304 136.111 247.386H136.03C135.458 247.467 134.886 247.467 134.314 247.549C133.742 247.631 133.17 247.631 132.598 247.631C132.271 247.631 131.863 247.712 131.536 247.712C130.883 247.712 130.311 247.794 129.739 247.794C128.922 247.794 128.186 247.876 127.369 247.876C126.552 247.876 125.817 247.876 125 247.876C124.428 247.876 123.856 247.876 123.284 247.876C88.8073 247.386 57.8433 232.761 35.7028 209.559C35.7028 209.559 35.7028 209.477 35.6211 209.477C33.1701 207.271 35.2943 195.507 45.1799 188.072C57.5982 178.677 87.3368 172.794 87.3368 172.794C87.3368 172.794 98.8564 170.915 141.585 179.82C166.585 185.049 185.621 192.647 196.242 213.235C198.448 217.484 200.654 224.02 192.892 227.451Z" fill="white"/>
<path d="M141.83 178.922C157.517 182.108 174.265 185.539 187.173 195.915C191.503 199.428 194.363 204.575 196.732 209.559C197.876 212.01 199.02 214.543 199.918 217.239C200.409 219.036 201.144 221.078 200.735 223.203C200.654 223.775 200.164 224.51 199.755 224.918C197.876 226.797 195.834 227.941 193.791 229.412C181.781 237.745 167.974 243.627 153.677 246.732C121.814 253.677 87.3368 248.284 59.3139 231.536C50.0002 225.899 41.4217 219.036 34.0688 210.948C33.2518 209.967 33.2518 208.333 33.2518 207.271C33.3335 204.82 33.9871 202.451 34.8041 200.245C36.7649 195.18 39.2975 190.114 43.6276 186.601C46.7322 184.477 50.0819 182.68 53.5132 181.209C64.2975 176.634 75.6538 173.448 87.3368 172.141C88.3172 172.059 88.4806 173.448 87.5002 173.611C76.3073 175.899 65.1962 179.33 54.8204 183.987C51.0623 185.866 47.059 187.5 44.0361 190.441C41.1766 193.546 39.1341 197.386 37.5002 201.307C36.4381 203.676 35.7028 207.435 36.0296 209.314C41.1766 215.441 47.2224 220.833 53.7583 225.49C89.5426 250.49 143.873 252.124 181.945 231.291C185.376 229.412 188.726 227.288 191.912 225.082C193.464 224.02 195.098 223.121 196.324 221.895C196.405 221.814 196.324 221.895 196.324 221.977C196.324 222.059 196.242 222.141 196.242 222.141C196.324 221.16 195.997 219.853 195.588 218.546C194.118 213.807 191.749 208.824 189.216 204.493C185.213 198.039 178.432 193.954 171.569 190.686C166.83 188.48 161.847 186.765 156.781 185.131C151.716 183.497 146.569 182.108 141.422 180.882C140.115 180.556 140.523 178.676 141.83 178.922Z" fill="#1C1C1C"/>
<path d="M204.085 239.052C202.532 226.961 195.67 206.618 191.503 201.144C186.928 195.18 185.049 193.301 169.771 188.153C168.954 184.068 165.931 173.774 162.336 169.444C156.862 161.193 141.911 159.314 137.418 160.294C137.418 160.294 113.235 151.797 85.3755 151.797C76.552 153.758 66.3395 157.761 60.784 166.176C57.0258 171.732 61.2742 173.529 59.3951 178.595C58.9049 179.902 47.467 186.438 42.8101 190.359C40.686 192.075 38.3167 196.405 36.6827 202.042C33.4147 213.562 36.9278 229.493 32.8428 243.382C24.9997 270.18 9.06831 278.186 9.06831 278.186H220.179C220.016 278.104 207.434 264.542 204.085 239.052Z" fill="white"/>
<path d="M202.859 239.216C201.225 228.513 197.958 217.892 193.791 207.925C191.748 203.105 188.644 198.448 184.314 195.588C182.108 194.199 179.657 193.137 177.124 192.075C174.591 191.095 171.977 190.196 169.444 189.297C169.036 189.134 168.709 188.807 168.627 188.399C168.301 186.765 167.892 185.212 167.402 183.579C165.278 176.961 162.99 169.608 156.781 165.768C152.042 162.909 146.405 161.52 140.931 161.275C139.869 161.275 138.725 161.275 137.745 161.438H137.418C137.337 161.438 137.173 161.438 137.091 161.356C133.17 159.477 128.84 158.333 124.591 157.19C111.846 154.248 98.5294 153.023 85.4575 152.941C77.451 154.82 66.2582 159.232 61.3562 167.402C60.5392 168.709 60.1307 170.016 60.2941 171.487C60.4575 173.121 61.0294 174.918 60.6209 176.634C60.4575 177.369 60.2941 178.186 59.9673 178.84C59.3137 179.739 58.2516 180.311 57.4346 180.882C53.1863 183.66 48.8562 186.111 44.7712 188.971C43.3823 189.951 42.0752 190.85 41.0948 192.239C38.2353 196.324 36.5196 201.226 35.7843 206.128C34.4771 216.095 35.7843 226.226 34.4771 236.193C33.0065 246.16 29.1667 255.801 23.7745 264.297C20.0163 270.016 15.4412 275.327 9.64052 279.003L9.06863 276.716H220.18L219.281 278.758C216.83 275.98 214.869 272.958 213.072 269.771C207.516 260.458 204.248 249.918 202.859 239.216ZM205.31 238.889C206.209 245.833 207.925 252.696 210.539 259.232C213.154 265.686 216.422 271.977 220.997 277.288C221.65 278.023 221.078 279.412 220.098 279.33H8.98693C8.33333 279.33 7.76144 278.758 7.76144 278.105C7.76144 277.614 8.00653 277.206 8.41503 277.043C9.72222 276.307 11.0294 275.245 12.2549 274.183C22.9575 264.543 29.6569 250.245 31.8627 236.029C33.7418 222.712 30.2288 208.333 36.1928 195.67C37.5817 192.729 39.2974 189.624 42.0752 187.745C47.1405 183.987 52.6961 181.209 57.6797 177.533C57.7614 177.533 57.7614 177.451 57.7614 177.451C57.6797 177.533 57.598 177.696 57.598 177.778C58.0882 176.634 58.2516 175.654 58.0882 174.346C57.8431 172.712 57.4346 170.507 58.0065 168.791C58.2516 167.811 58.7418 166.912 59.232 166.177C65.1144 157.353 75.4902 153.431 85.3758 151.226C88.1536 151.307 91.0131 150.817 93.7908 150.817C97.6307 150.817 101.552 151.389 105.392 151.879C116.422 153.595 127.042 156.536 137.908 158.905L137.173 158.824C139.706 158.333 142.075 158.579 144.526 158.905C160.212 161.275 165.523 168.137 169.771 182.762C170.261 184.395 170.67 186.029 171.078 187.745L170.261 186.765C178.105 189.543 186.928 192.075 191.912 199.346C193.709 201.552 195.016 204.167 196.16 206.781C200.327 217.239 203.595 227.778 205.31 238.889Z" fill="#1C1C1C"/>
<path d="M75.327 185.294C81.3728 198.203 90.7682 209.151 101.961 217.811C102.369 218.138 101.961 218.791 101.471 218.546C91.5035 213.807 83.0884 205.719 78.1048 195.915C76.4708 192.647 75.0819 189.134 74.5917 185.458C74.4283 185.049 75.0819 184.886 75.327 185.294Z" fill="#1C1C1C"/>
<path d="M170.997 187.99C171.242 201.634 165.687 215.605 155.066 224.428C154.82 224.673 154.494 224.592 154.249 224.347C154.003 224.101 154.085 223.775 154.33 223.53C156.7 221.242 159.069 218.873 160.866 216.095C164.624 210.703 166.912 204.33 167.974 197.876C168.464 194.69 168.791 191.258 168.546 188.072C168.464 186.52 170.915 186.356 170.997 187.99Z" fill="#1C1C1C"/>
<path d="M122.876 220.425C120.997 227.043 119.444 234.232 120.343 241.095C120.588 242.647 118.219 243.056 117.892 241.422C117.484 237.663 117.974 233.987 118.627 230.392C119.363 226.797 120.261 223.366 121.487 219.935C121.814 219.118 123.203 219.526 122.876 220.425Z" fill="#1C1C1C"/>
<path d="M148.856 219.199C151.552 225 153.431 231.046 154.902 237.173C155.065 237.827 154.657 238.48 154.003 238.644C153.35 238.807 152.696 238.399 152.533 237.745C151.716 233.17 150.654 228.595 149.183 224.101C148.693 222.631 148.203 221.16 147.631 219.69C147.304 218.954 148.448 218.382 148.856 219.199Z" fill="#1C1C1C"/>
<path d="M61.1111 178.268C64.134 194.771 75.7353 208.742 89.7059 217.647C94.4444 220.67 99.5098 223.284 104.739 225.409C105.065 225.572 105.229 225.899 105.065 226.226C104.984 226.552 104.575 226.716 104.33 226.552C98.9379 224.592 93.7091 222.141 88.8072 219.199C78.8399 213.317 70.098 205.147 64.2157 195.18C61.1928 190.033 58.8235 184.641 57.6797 178.758C57.5163 177.778 58.1699 176.879 59.1503 176.716C60.049 176.471 61.0294 177.206 61.1111 178.268Z" fill="#1C1C1C"/>
<path d="M117.973 242.892C115.686 242.647 114.052 240.523 114.542 238.235L115.441 233.905C115.768 232.19 117.402 230.964 119.117 231.209C120.833 231.373 122.222 232.843 122.222 234.641V239.052C122.304 241.34 120.343 243.137 117.973 242.892Z" fill="#1C1C1C"/>
<path d="M155.637 239.869C153.431 240.686 151.062 239.379 150.49 237.092L149.428 232.761C149.02 231.046 149.918 229.33 151.634 228.677C153.268 228.105 155.147 228.84 155.882 230.392L157.843 234.395C158.824 236.601 157.843 239.134 155.637 239.869Z" fill="#1C1C1C"/>
<path d="M193.382 237.418C193.382 237.418 197.958 263.072 196.16 278.105" stroke="#1C1C1C" stroke-width="5.1257" stroke-miterlimit="10" stroke-linecap="round" stroke-linejoin="round"/>
<path d="M86.6828 175.327C85.539 172.059 85.0488 168.709 85.2939 165.278C85.2939 164.951 85.539 164.788 85.8658 164.788C86.1109 164.788 86.356 165.033 86.356 165.278C86.6011 168.382 87.4997 171.569 88.9703 174.265C89.7056 175.899 87.2546 176.961 86.6828 175.327Z" fill="#1C1C1C"/>
<path d="M141.911 179.657C139.624 174.51 133.987 171.896 129.003 170.098C125.898 169.118 122.467 168.383 119.199 167.892C111.274 166.667 100.081 164.788 92.1565 163.971C92.0748 163.971 92.0748 163.807 92.1565 163.807C94.4441 163.562 96.7317 163.562 99.0193 163.562C105.882 163.726 112.745 164.461 119.526 165.523C126.307 166.585 133.578 168.628 138.725 173.53C140.359 175.245 141.83 177.206 142.238 179.575C142.32 179.82 141.993 179.902 141.911 179.657Z" fill="#1C1C1C"/>
<path d="M149.509 200.654C147.794 209.069 136.682 214.134 117.973 206.536C98.5289 198.693 90.1139 179.984 87.9897 174.428C99.5093 152.859 91.5027 137.909 91.5027 137.909C118.055 135.621 141.258 166.667 141.258 166.667L144.852 182.026C145.179 183.333 145.833 184.477 146.813 185.294C148.529 188.317 150.571 195.261 149.509 200.654Z" fill="white"/>
<path d="M87.5815 174.673C89.1338 172.304 90.1142 169.526 90.7678 166.83C91.9933 161.193 92.4018 155.474 92.4835 149.755V147.631C92.2384 145.507 91.5031 143.301 90.6861 141.34C89.624 138.725 93.4639 137.091 94.6894 139.706C94.8528 140.033 94.8528 140.605 94.8528 140.931C95.0979 152.042 95.5881 166.34 88.5619 175.572C88.0717 176.062 87.0913 175.327 87.5815 174.673Z" fill="#1C1C1C"/>
<path d="M142.156 166.503C143.382 167.239 143.79 168.219 143.954 169.199C144.444 171.16 144.281 173.284 144.771 175.327C145.179 177.288 146.405 179.167 146.732 181.209C147.14 183.333 148.366 187.827 148.856 190.033C149.019 190.523 148.692 191.095 148.12 191.177C147.794 191.258 147.549 191.177 147.303 191.013C146.241 190.114 145.751 189.216 145.098 188.072C144.036 186.111 143.3 184.314 142.647 182.108C142.075 180.147 142.32 178.023 141.83 175.981C141.421 174.02 140.277 172.141 139.869 170.098C139.624 169.118 139.542 168.056 140.277 166.83C140.768 166.34 141.585 166.177 142.156 166.503Z" fill="#1C1C1C"/>
<path d="M148.039 188.072C132.434 187.255 119.689 182.353 107.271 160.212C117.729 169.444 130.065 172.958 143.055 174.592L144.771 182.108C145.098 183.415 147.059 187.255 148.039 188.072Z" fill="#1C1C1C"/>
<path d="M147.386 185.049C150.164 190.278 151.798 196.814 150.082 202.614C148.775 206.699 145.016 209.722 140.932 210.866C131.454 213.399 120.507 209.395 112.092 204.902C101.716 199.101 94.0361 189.379 89.1341 178.758C88.8073 177.941 89.9511 177.288 90.4413 178.105C92.157 181.536 94.1178 184.886 96.3237 187.909C98.5296 191.013 101.062 193.873 103.922 196.405C112.255 203.922 123.53 208.578 134.804 208.578C146.405 208.252 150.817 202.124 148.121 190.85C147.713 189.052 147.059 187.173 146.16 185.621C145.67 184.967 146.896 184.232 147.386 185.049Z" fill="#1C1C1C"/>
<path d="M179.003 86.9281C180.474 93.7909 181.209 99.3464 177.206 117.647C173.284 135.866 182.843 139.624 160.212 168.791C150.98 180.719 128.595 177.369 110.457 165.033C104.33 160.866 101.716 150.163 97.1404 142.565C93.5456 136.601 91.9116 142.81 87.173 137.663C80.7188 130.637 72.9574 116.503 76.7972 91.5033C83.0064 50.9804 115.114 46.2419 138.889 50.7353C162.827 55.3105 175.082 68.8726 179.003 86.9281Z" fill="white"/>
<path d="M91.258 144.935C89.3789 141.748 86.9279 138.971 84.6404 136.029C82.4345 133.007 80.6371 129.657 79.1665 126.226C69.4443 102.369 73.2025 68.7909 97.0587 54.7386C106.944 49.0196 118.872 47.6307 129.983 48.5294C153.758 50.2451 175.572 61.1928 180.719 86.3562C183.497 97.4673 179.738 108.905 177.614 119.771C176.634 125.163 177.451 130.719 177.369 136.275C177.287 141.912 175.735 147.549 173.611 152.778C172.304 156.373 170.016 159.559 167.647 162.5C163.725 167.239 159.804 172.059 154.82 175.735C153.676 176.552 151.634 176.961 150.245 177.124C146.405 177.696 142.647 177.859 138.807 177.614C123.774 176.961 107.68 169.69 101.634 155.147C101.389 154.575 102.206 154.167 102.533 154.657C110.376 167.075 124.755 173.203 139.052 174.02C143.464 174.265 147.957 174.183 152.287 173.284C154.412 172.222 156.291 170.343 158.088 168.627C162.5 164.216 166.993 159.477 170.18 154.085C174.019 146.814 176.144 138.889 175.49 130.637C175.327 126.961 175.245 123.121 175.98 119.444C176.634 115.768 177.451 112.255 177.941 108.497C178.431 104.902 178.676 101.226 178.676 97.6307C178.268 87.0915 174.836 76.2255 168.137 68.0556C153.35 49.6732 118.382 44.853 98.6927 57.4347C86.2744 65.1144 80.4737 79.4935 78.5946 93.4641C75.7351 110.212 76.5521 126.716 89.8691 138.889L93.7907 142.974C95.343 144.771 92.5652 146.895 91.258 144.935Z" fill="#1C1C1C"/>
<path d="M100.898 118.954C100.898 118.954 98.3655 106.699 86.4374 108.17C76.1433 109.477 72.5485 134.15 95.9146 141.013" fill="white"/>
<path d="M94.8528 130.31C92.9737 129.248 91.6665 127.451 91.5848 125.245C91.6665 123.611 91.9116 121.732 91.5031 120.098C91.258 118.546 89.624 118.137 88.3985 118.219C87.0913 118.464 86.2744 120.098 86.0293 121.405C86.0293 121.487 85.9476 121.732 85.9476 121.814C85.8659 122.222 85.2123 122.222 85.0489 121.814C83.9868 118.627 86.3561 115.114 89.7874 115.523C94.6077 115.85 95.2613 120.915 94.3626 124.755C93.8724 126.389 94.526 127.859 95.4247 129.248L95.5881 129.493C95.9966 129.984 95.343 130.637 94.8528 130.31Z" fill="#1C1C1C"/>
<path d="M160.212 110.294C161.438 116.095 163.725 121.487 166.585 126.552C169.117 132.761 162.581 138.644 156.781 138.399C156.127 138.399 156.045 137.5 156.617 137.337C160.294 136.193 163.643 133.742 164.215 129.984C164.46 128.84 164.134 127.859 163.562 126.879C160.866 121.814 159.232 116.013 159.64 110.294C159.64 109.886 160.212 109.886 160.212 110.294Z" fill="#1C1C1C"/>
<path d="M100.49 119.036C98.6109 114.216 94.526 109.641 89.0521 109.722C88.5619 109.641 87.7449 109.804 87.2547 109.804C85.8659 109.886 84.7221 110.376 83.66 111.356C78.4312 116.585 79.3299 125.817 83.5783 131.618C85.0489 133.66 86.9279 135.458 89.0521 136.928C91.1763 138.399 93.5456 139.543 96.0783 140.523C96.6502 140.686 96.4051 141.585 95.8332 141.503C90.3593 140.36 85.1306 137.663 81.5358 133.17C75.9802 126.471 74.8364 115.278 81.4541 108.742C82.9247 107.435 84.9672 106.454 87.0096 106.454C87.6632 106.454 88.6436 106.291 89.2972 106.454C92.7286 106.618 95.9966 108.333 98.1208 111.029C99.9998 113.317 101.062 116.095 101.389 118.873C101.389 119.363 100.653 119.526 100.49 119.036Z" fill="#1C1C1C"/>
<path d="M154.003 146.569C148.775 151.552 138.889 147.549 136.275 141.503C135.948 140.768 136.765 140.114 137.418 140.441C138.807 141.176 140.033 141.912 141.34 142.484C145.098 144.199 149.02 145.588 153.186 145.18C154.003 145.016 154.575 145.997 154.003 146.569Z" fill="#1C1C1C"/>
<path d="M129.739 118.627C127.778 118.546 126.307 116.912 126.471 114.951L126.552 112.663C126.634 110.703 128.268 109.232 130.229 109.395C132.19 109.477 133.66 111.111 133.497 113.072L133.415 115.36C133.334 117.239 131.7 118.709 129.739 118.627Z" fill="#1C1C1C"/>
<path d="M164.134 119.853C162.337 119.771 160.948 118.219 161.029 116.422L161.111 114.298C161.193 112.5 162.745 111.111 164.542 111.193C166.34 111.275 167.729 112.827 167.647 114.624L167.565 116.748C167.484 118.546 165.931 119.935 164.134 119.853Z" fill="#1C1C1C"/>
<path d="M137.092 114.216C134.396 112.418 131.454 111.193 128.186 111.846C127.124 112.01 126.062 112.337 125.409 113.072C125.164 113.399 124.592 113.317 124.592 112.827C124.673 111.193 126.062 110.131 127.369 109.477C129.902 108.17 133.415 108.415 135.703 110.131C136.52 110.621 139.298 113.644 137.827 114.297C137.5 114.461 137.337 114.379 137.092 114.216Z" fill="#1C1C1C"/>
<path d="M160.458 114.624C160.458 111.193 164.706 109.967 167.32 111.193C168.791 111.846 169.853 113.154 170.262 114.706C170.425 115.196 169.69 115.605 169.363 115.196C167.974 113.562 165.605 112.745 163.726 113.726C163.154 114.052 163.072 114.297 162.909 114.624C162.909 116.258 160.539 116.177 160.458 114.624Z" fill="#1C1C1C"/>
<path d="M141.013 100.735C142.729 101.307 144.445 99.755 144.118 97.8759C143.954 96.8955 143.546 95.9151 142.729 95.1798C140.278 92.9739 130.147 91.0131 124.02 93.8726C118.628 96.487 133.17 98.121 141.013 100.735Z" fill="#1C1C1C"/>
<path d="M165.442 102.043C164.053 102.533 162.582 101.062 162.827 99.3465C162.909 98.4478 163.236 97.5491 163.889 96.8955C165.85 94.9347 172.549 93.3824 176.798 96.4053C180.474 98.938 171.814 99.6733 165.442 102.043Z" fill="#1C1C1C"/>
<path d="M179.657 89.9511C179.494 88.9707 179.249 87.9903 179.085 86.9282C178.186 82.9249 176.879 79.1668 175.164 75.6537L165.523 79.657C162.745 80.8007 159.641 81.1275 156.618 80.6373L118.382 74.0197C113.726 73.2027 109.232 75.8988 107.68 80.3106C106.536 83.4968 104.739 87.9903 103.268 91.1766C91.6668 93.0556 87.8269 90.2779 78.5132 85.9478C77.7779 85.621 76.7158 84.5589 75.8988 84.1504C77.3694 76.7158 71.7322 45.67 78.7583 37.5818C81.1276 34.8857 83.4969 34.5589 85.7845 35.3759C91.0949 37.255 88.889 36.1929 92.7289 32.1079C95.8335 28.9217 99.755 26.1439 104.575 26.0622C106.945 25.9805 108.824 26.4707 110.376 27.3694C115.278 30.0655 121.242 29.1668 125.654 25.8171C127.043 24.8367 128.513 24.1831 130.147 24.1831C132.516 24.1831 134.641 25.1635 136.356 26.4707C139.624 28.9217 143.954 29.4936 147.958 28.6766C148.203 28.5949 148.448 28.5949 148.693 28.5949C149.673 28.5949 150.735 28.84 151.634 29.2485C155.066 30.7191 158.905 30.8825 162.337 29.4119C163.971 28.7583 165.932 28.7583 167.892 30.6374C170.343 33.0066 173.53 34.5589 176.961 34.6406C177.86 34.6406 179.003 35.0491 180.392 35.9478C181.046 36.438 181.618 37.3367 182.026 38.5622C182.68 40.4413 184.232 41.8302 186.193 42.4021C187.418 42.8106 188.317 44.036 188.562 46.8138C189.298 55.5556 181.699 82.8432 179.657 89.9511Z" fill="#1C1C1C"/>
<path d="M186.03 42.2386C182.435 43.5458 181.782 42.8105 177.697 41.7484C173.612 40.6863 170.017 45.2614 167.076 40.5229C162.827 33.5784 154.984 38.317 153.432 37.0098C151.88 35.7026 147.059 31.3726 140.278 35.9477C135.785 38.9706 130.066 33.5784 122.876 33.5784C108.497 33.5784 105.883 44.1177 100.899 39.2974C95.9157 34.5588 98.7751 37.7451 91.4222 39.0523C84.0693 40.3595 80.3111 35.9477 80.3111 35.9477C82.1085 34.7222 83.9059 34.7222 85.6216 35.2941C90.932 37.1732 88.7261 36.1111 92.566 32.0262C95.6706 28.8399 99.5921 26.0621 104.412 25.9804C106.782 25.8987 108.661 26.3889 110.213 27.2876C115.115 29.9837 121.079 29.085 125.491 25.7353C126.88 24.7549 128.35 24.1013 129.984 24.1013C132.354 24.1013 134.478 25.0817 136.193 26.3889C139.461 28.8399 143.791 29.4118 147.795 28.5948C148.04 28.5131 148.285 28.5131 148.53 28.5131C149.51 28.5131 150.573 28.7582 151.471 29.1667C154.903 30.6373 158.742 30.8007 162.174 29.3301C163.808 28.6765 165.769 28.6765 167.729 30.5556C170.18 32.9248 173.367 34.4771 176.798 34.5588C177.697 34.5588 178.841 34.9673 180.229 35.866C180.883 36.3562 181.455 37.2549 181.863 38.4804C182.517 40.2778 184.069 41.6667 186.03 42.2386Z" fill="#1C1C1C"/>
<path d="M100.245 114.624C100.245 115.114 99.5919 115.36 99.3468 114.869C97.4677 111.438 93.7095 107.271 86.52 108.17C77.8599 109.232 73.9383 126.797 86.6834 136.438C89.7063 138.644 92.8925 139.869 93.8729 140.278C94.118 140.36 94.1997 140.605 94.1997 140.768L93.3827 146.487C93.301 146.814 92.9742 147.141 92.7291 146.895C89.8697 143.627 88.7259 141.83 81.8631 134.722C76.8795 129.575 71.2422 122.304 70.5069 110.212C69.935 99.5915 72.4677 91.2582 75.654 84.4772C75.7357 84.2321 76.0625 84.1504 76.3076 84.2321C87.0919 89.2157 91.0952 92.0752 102.696 90.3595C103.105 90.2778 103.35 90.6863 103.187 91.0131C101.879 93.5458 100.572 95.5883 99.1834 96.5687C95.1801 99.6732 99.837 107.19 100.245 114.624Z" fill="#EDEDED"/>
<path d="M100.817 114.542C100.899 115.85 99.1834 116.095 98.6932 114.951C97.0592 112.01 94.3631 109.641 91.0952 108.987C87.337 108.252 83.5788 109.069 81.5363 112.663C77.7782 119.199 79.8206 128.105 85.1311 133.252C87.7455 135.621 90.2782 138.889 93.9546 139.869C94.3631 139.951 94.6082 140.441 94.5265 140.768V140.85V141.013V141.422V142.157C94.5265 143.382 94.5265 145.098 94.4448 146.324C94.4448 147.631 92.7291 148.611 91.8304 147.467C90.8501 146.487 89.3795 144.526 88.4808 143.382C83.4971 137.173 77.0429 131.781 73.6932 124.346C68.6278 113.235 69.6899 100.163 73.7749 88.9706C74.4285 87.3366 75.0004 85.6209 75.8991 84.1503C76.1442 83.9869 76.3893 84.0686 76.6344 84.232C81.9448 86.6013 87.5821 89.8693 93.4644 90.6046C96.4873 90.9314 99.5102 90.768 102.451 90.3595C102.696 90.3595 102.942 90.1961 103.187 90.3595C103.922 90.768 102.942 91.9118 102.778 92.4837C102.043 94.1177 101.144 95.8334 99.837 97.0588C97.2226 99.5915 100.491 104.902 100.817 108.17C100.981 110.376 100.654 112.5 100.817 114.542ZM99.5919 114.624C99.5102 112.663 98.2847 110.866 97.4677 109.069C96.2422 105.556 94.935 101.552 96.3239 97.7941C96.8141 96.6503 97.7945 95.7517 98.7749 95.0981C100.082 93.8726 101.226 92.2386 102.043 90.6046C101.798 90.9314 102.125 91.8301 102.778 91.7484C91.7488 93.6275 85.7847 90.1961 75.9808 85.5392L75.8174 85.4575C76.1442 85.6209 76.5527 85.4575 76.7161 85.1307V85.049C76.471 85.6209 76.1442 86.1928 75.8991 86.8464C70.9154 98.2843 69.6082 112.255 75.2455 123.693C78.7586 130.882 85.2128 135.866 90.1148 142.075C90.9318 143.056 92.6474 145.098 93.4644 146.16C93.2193 145.833 92.4023 145.752 92.2389 146.16L92.1572 146.324C92.2389 145.915 92.3206 145.425 92.484 145.016C92.8108 143.709 93.301 142.075 93.6278 140.686C93.6278 140.605 93.6278 140.605 93.6278 140.605C92.8925 140.278 92.0755 139.951 91.3403 139.624C89.4612 138.807 87.337 138.399 85.5396 137.255C79.4938 133.088 76.1442 125 77.6148 117.647C78.5135 112.418 82.3533 106.863 88.2357 107.353C93.0559 107.271 97.5494 110.131 99.7553 114.379L99.837 114.542C99.7553 114.461 99.6736 114.461 99.5919 114.624Z" fill="#1C1C1C"/>
<path d="M100.327 95.5882C99.9187 95.9967 99.5919 96.4052 99.1834 96.6503C98.203 97.3856 97.7128 98.4477 97.5494 99.6732C92.484 99.9183 85.2128 97.7941 82.6801 96.9771C82.1082 96.8137 81.7814 96.3235 81.7814 95.7516V95.3431C81.7814 94.4444 82.5984 93.8725 83.4154 94.0359C89.1344 95.5882 100 95.5882 100.327 95.5882Z" fill="#1C1C1C"/>
<path d="M98.6935 106.536C94.2 106.209 89.8699 105.392 87.9091 104.984C87.2555 104.82 86.847 104.33 86.847 103.677C86.847 102.86 87.5823 102.288 88.3993 102.369C92.0758 102.941 95.9974 102.86 97.8765 102.778C97.9582 103.922 98.285 105.147 98.6935 106.536Z" fill="#1C1C1C"/>
<path d="M165.931 159.972C167.157 153.517 167.565 146.981 166.503 140.527C166.095 138.076 164.624 133.991 162.337 135.789C161.438 136.524 156.781 137.994 155.882 138.076C153.268 138.321 151.307 137.994 149.428 136.524C147.304 134.808 147.304 134.073 146.814 133.91C138.235 131.05 127.451 128.191 123.938 139.71C121.078 149.106 113.889 158.338 108.578 149.187C104.493 142.243 104.739 129.008 104.167 126.23C102.778 119.367 100.817 116.017 99.6732 116.998C99.6732 119.204 100.408 145.266 100.49 146.655C101.062 153.844 101.961 156.132 105.229 160.789C108.497 165.445 119.935 178.109 134.804 179.171C149.755 180.233 158.007 179.008 166.34 169.449C173.856 160.789 174.101 142.815 174.101 142.815C170.425 153.681 167.892 157.276 165.931 159.972ZM132.271 141.589C136.52 136.932 142.729 142.325 149.428 142.815C156.046 143.305 158.742 139.138 159.232 146.491C159.395 148.289 159.641 151.311 159.559 153.354C159.559 153.436 159.559 153.517 159.559 153.599C159.314 155.887 158.578 158.419 156.291 159.808C151.471 162.831 143.709 162.096 138.725 161.115C131.781 159.727 130.31 156.54 129.984 155.07C129.493 148.779 130.556 143.468 132.271 141.589Z" fill="#1C1C1C"/>
<path d="M142.729 128.676C142.729 128.676 135.049 133.497 126.389 133.415C117.729 133.333 116.667 126.552 116.585 122.876C116.585 122.876 117.729 128.186 122.958 130.147C128.105 132.108 142.729 128.676 142.729 128.676Z" fill="#1C1C1C"/>
<path d="M167.401 127.778C167.401 127.778 169.281 130.065 171.813 131.699C173.529 132.843 175.817 131.618 175.817 129.575C175.817 129.575 171.078 129.82 167.401 127.778Z" fill="#1C1C1C"/>
<path d="M145.588 106.863C141.176 106.454 130.065 105.556 125.817 105.147L122.549 104.902C119.853 104.739 117.728 107.026 117.238 109.641C117.075 110.458 117.075 111.846 117.075 112.663V116.013C117.075 118.056 116.993 120.18 117.728 122.141C119.036 126.716 123.202 130.392 128.104 129.82C128.594 129.739 131.617 129.412 132.189 129.33L138.807 128.595C140.931 128.431 142.892 127.86 144.771 126.716C147.385 125.163 149.918 122.794 149.755 119.444L149.918 116.177C150.081 112.092 151.225 107.271 145.588 106.863ZM145.833 104.167C149.673 104.494 152.287 108.497 152.042 112.173C152.042 112.663 151.879 115.768 151.797 116.34C151.797 116.993 151.634 119.935 151.552 120.507C151.143 126.062 144.934 129.984 139.869 130.719C137.255 131.046 131.781 131.781 129.166 132.108C128.513 132.19 127.614 132.271 126.96 132.353C126.634 132.353 125.898 132.271 125.571 132.271C118.627 131.373 114.215 124.265 114.379 117.647C114.379 116.585 114.379 113.807 114.379 112.663C114.379 112.092 114.379 110.621 114.46 110.049C114.705 107.19 116.258 104.412 118.872 102.86C120.016 102.206 121.405 101.879 122.794 101.961L126.143 102.288C130.228 102.778 141.503 103.84 145.833 104.167Z" fill="#1C1C1C"/>
<path d="M164.787 105.474C166.585 105.229 175.408 104.248 177.042 104.085C177.451 104.085 178.513 103.922 178.84 103.922C182.353 103.431 183.987 107.271 184.314 110.131C184.477 112.663 184.314 115.114 184.395 117.565C184.395 119.281 184.232 120.997 183.823 122.631C182.761 127.043 179.657 131.699 174.51 130.229C173.284 129.984 170.833 129.657 169.689 129.412L168.464 129.167C166.095 128.758 164.134 127.124 162.827 125.327C160.376 122.467 160.866 118.627 160.621 115.196C160.294 111.765 160.376 106.454 164.787 105.474ZM165.114 107.843C162.582 108.987 163.235 112.827 163.235 115.114L163.399 120.016C163.48 123.121 165.931 126.226 168.872 127.043C169.608 127.206 171.65 127.614 172.467 127.778L174.836 128.268C180.719 130.147 183.006 121.977 182.925 117.484C182.68 113.726 183.823 109.232 181.127 106.209C180.474 105.556 179.82 105.392 179.085 105.556C178.676 105.637 177.614 105.801 177.287 105.882C175.653 106.209 166.83 107.598 165.114 107.843Z" fill="#1C1C1C"/>
<path d="M115.686 113.072C115.032 114.542 114.461 114.379 113.317 114.379L110.948 114.297C107.925 114.134 104.575 113.889 101.552 113.48C99.9181 113.235 98.2024 112.99 96.5684 112.582C95.9148 112.418 95.5063 111.765 95.6697 111.111C95.8331 110.539 96.3233 110.131 96.8952 110.212L101.634 110.458L106.372 110.621C107.925 110.703 111.928 110.784 113.48 110.866C114.297 110.866 115.032 110.948 115.849 110.703C116.176 110.621 116.503 110.784 116.585 111.111C116.666 111.275 116.585 111.356 116.585 111.52L115.686 113.072Z" fill="#1C1C1C"/>
<path d="M150.49 111.356C153.431 109.722 161.193 107.435 162.663 111.846C163.317 112.99 161.601 114.052 160.866 112.909C160.866 113.072 160.457 112.909 160.294 112.909C157.189 112.663 154.003 113.154 150.898 113.399C149.591 113.562 149.346 111.846 150.49 111.356Z" fill="#1C1C1C"/>
</g>
</svg>
